<mxfile host="Electron" modified="2024-04-09T15:25:22.694Z" agent="Mozilla/5.0 (Windows NT 10.0; Win64; x64) AppleWebKit/537.36 (KHTML, like Gecko) draw.io/22.1.2 Chrome/114.0.5735.289 Electron/25.9.4 Safari/537.36" etag="xOZwclD3ng0Df7EY8zzf" version="22.1.2" type="device">
  <diagram name="Page-1" id="nr0-SxgHnWN3ELVF5QJP">
    <mxGraphModel dx="1036" dy="654" grid="1" gridSize="10" guides="0" tooltips="1" connect="0" arrows="1" fold="1" page="1" pageScale="1" pageWidth="850" pageHeight="1100" background="#ffffff" math="0" shadow="0">
      <root>
        <mxCell id="0" />
        <mxCell id="1" parent="0" />
        <mxCell id="_IqxrY9LP4uLv0mn3WM5-5" value="" style="edgeStyle=orthogonalEdgeStyle;rounded=0;orthogonalLoop=1;jettySize=auto;html=1;" edge="1" parent="1" source="_IqxrY9LP4uLv0mn3WM5-3" target="_IqxrY9LP4uLv0mn3WM5-4">
          <mxGeometry relative="1" as="geometry" />
        </mxCell>
        <mxCell id="_IqxrY9LP4uLv0mn3WM5-3" value="START" style="ellipse;whiteSpace=wrap;html=1;" vertex="1" parent="1">
          <mxGeometry x="40" y="40" width="120" height="80" as="geometry" />
        </mxCell>
        <mxCell id="_IqxrY9LP4uLv0mn3WM5-7" value="" style="edgeStyle=orthogonalEdgeStyle;rounded=0;orthogonalLoop=1;jettySize=auto;html=1;" edge="1" parent="1" source="_IqxrY9LP4uLv0mn3WM5-4" target="_IqxrY9LP4uLv0mn3WM5-6">
          <mxGeometry relative="1" as="geometry" />
        </mxCell>
        <mxCell id="_IqxrY9LP4uLv0mn3WM5-4" value="LET&amp;nbsp;&lt;br&gt;string user_input" style="shape=hexagon;perimeter=hexagonPerimeter2;whiteSpace=wrap;html=1;fixedSize=1;" vertex="1" parent="1">
          <mxGeometry x="40" y="160" width="120" height="80" as="geometry" />
        </mxCell>
        <mxCell id="_IqxrY9LP4uLv0mn3WM5-9" value="" style="edgeStyle=orthogonalEdgeStyle;rounded=0;orthogonalLoop=1;jettySize=auto;html=1;" edge="1" parent="1" source="_IqxrY9LP4uLv0mn3WM5-6" target="_IqxrY9LP4uLv0mn3WM5-8">
          <mxGeometry relative="1" as="geometry" />
        </mxCell>
        <mxCell id="_IqxrY9LP4uLv0mn3WM5-6" value="OUTPUT" style="shape=parallelogram;perimeter=parallelogramPerimeter;whiteSpace=wrap;html=1;fixedSize=1;" vertex="1" parent="1">
          <mxGeometry x="40" y="280" width="120" height="60" as="geometry" />
        </mxCell>
        <mxCell id="_IqxrY9LP4uLv0mn3WM5-11" value="" style="edgeStyle=orthogonalEdgeStyle;rounded=0;orthogonalLoop=1;jettySize=auto;html=1;" edge="1" parent="1" source="_IqxrY9LP4uLv0mn3WM5-8" target="_IqxrY9LP4uLv0mn3WM5-10">
          <mxGeometry relative="1" as="geometry" />
        </mxCell>
        <mxCell id="_IqxrY9LP4uLv0mn3WM5-8" value="INPUT&lt;br&gt;user_input" style="shape=parallelogram;perimeter=parallelogramPerimeter;whiteSpace=wrap;html=1;fixedSize=1;" vertex="1" parent="1">
          <mxGeometry x="40" y="380" width="120" height="60" as="geometry" />
        </mxCell>
        <mxCell id="_IqxrY9LP4uLv0mn3WM5-13" value="" style="edgeStyle=orthogonalEdgeStyle;rounded=0;orthogonalLoop=1;jettySize=auto;html=1;" edge="1" parent="1" source="_IqxrY9LP4uLv0mn3WM5-10" target="_IqxrY9LP4uLv0mn3WM5-12">
          <mxGeometry relative="1" as="geometry" />
        </mxCell>
        <mxCell id="_IqxrY9LP4uLv0mn3WM5-124" value="false" style="edgeLabel;html=1;align=center;verticalAlign=middle;resizable=0;points=[];" vertex="1" connectable="0" parent="_IqxrY9LP4uLv0mn3WM5-13">
          <mxGeometry x="-0.0109" y="-1" relative="1" as="geometry">
            <mxPoint x="1" as="offset" />
          </mxGeometry>
        </mxCell>
        <mxCell id="_IqxrY9LP4uLv0mn3WM5-71" style="edgeStyle=orthogonalEdgeStyle;rounded=0;orthogonalLoop=1;jettySize=auto;html=1;exitX=1;exitY=0.5;exitDx=0;exitDy=0;entryX=0;entryY=0.5;entryDx=0;entryDy=0;" edge="1" parent="1" source="_IqxrY9LP4uLv0mn3WM5-10" target="_IqxrY9LP4uLv0mn3WM5-64">
          <mxGeometry relative="1" as="geometry" />
        </mxCell>
        <mxCell id="_IqxrY9LP4uLv0mn3WM5-113" value="true" style="edgeLabel;html=1;align=center;verticalAlign=middle;resizable=0;points=[];" vertex="1" connectable="0" parent="_IqxrY9LP4uLv0mn3WM5-71">
          <mxGeometry x="-0.9351" relative="1" as="geometry">
            <mxPoint x="2" as="offset" />
          </mxGeometry>
        </mxCell>
        <mxCell id="_IqxrY9LP4uLv0mn3WM5-10" value="poster_mode" style="rhombus;whiteSpace=wrap;html=1;" vertex="1" parent="1">
          <mxGeometry x="45" y="480" width="110" height="80" as="geometry" />
        </mxCell>
        <mxCell id="_IqxrY9LP4uLv0mn3WM5-15" value="" style="edgeStyle=orthogonalEdgeStyle;rounded=0;orthogonalLoop=1;jettySize=auto;html=1;" edge="1" parent="1" source="_IqxrY9LP4uLv0mn3WM5-12" target="_IqxrY9LP4uLv0mn3WM5-14">
          <mxGeometry relative="1" as="geometry" />
        </mxCell>
        <mxCell id="_IqxrY9LP4uLv0mn3WM5-151" value="false" style="edgeLabel;html=1;align=center;verticalAlign=middle;resizable=0;points=[];" vertex="1" connectable="0" parent="_IqxrY9LP4uLv0mn3WM5-15">
          <mxGeometry x="-0.0273" y="1" relative="1" as="geometry">
            <mxPoint as="offset" />
          </mxGeometry>
        </mxCell>
        <mxCell id="_IqxrY9LP4uLv0mn3WM5-69" style="edgeStyle=orthogonalEdgeStyle;rounded=0;orthogonalLoop=1;jettySize=auto;html=1;exitX=1;exitY=0.5;exitDx=0;exitDy=0;entryX=0;entryY=0.5;entryDx=0;entryDy=0;" edge="1" parent="1" source="_IqxrY9LP4uLv0mn3WM5-12" target="_IqxrY9LP4uLv0mn3WM5-64">
          <mxGeometry relative="1" as="geometry" />
        </mxCell>
        <mxCell id="_IqxrY9LP4uLv0mn3WM5-155" value="true" style="edgeLabel;html=1;align=center;verticalAlign=middle;resizable=0;points=[];" vertex="1" connectable="0" parent="_IqxrY9LP4uLv0mn3WM5-69">
          <mxGeometry x="-0.8954" relative="1" as="geometry">
            <mxPoint as="offset" />
          </mxGeometry>
        </mxCell>
        <mxCell id="_IqxrY9LP4uLv0mn3WM5-12" value="reservation_mode" style="rhombus;whiteSpace=wrap;html=1;" vertex="1" parent="1">
          <mxGeometry x="45" y="600" width="110" height="80" as="geometry" />
        </mxCell>
        <mxCell id="_IqxrY9LP4uLv0mn3WM5-17" value="" style="edgeStyle=orthogonalEdgeStyle;rounded=0;orthogonalLoop=1;jettySize=auto;html=1;" edge="1" parent="1" source="_IqxrY9LP4uLv0mn3WM5-14" target="_IqxrY9LP4uLv0mn3WM5-16">
          <mxGeometry relative="1" as="geometry" />
        </mxCell>
        <mxCell id="_IqxrY9LP4uLv0mn3WM5-152" value="false" style="edgeLabel;html=1;align=center;verticalAlign=middle;resizable=0;points=[];" vertex="1" connectable="0" parent="_IqxrY9LP4uLv0mn3WM5-17">
          <mxGeometry x="0.0091" y="-1" relative="1" as="geometry">
            <mxPoint as="offset" />
          </mxGeometry>
        </mxCell>
        <mxCell id="_IqxrY9LP4uLv0mn3WM5-110" style="edgeStyle=orthogonalEdgeStyle;rounded=0;orthogonalLoop=1;jettySize=auto;html=1;exitX=1;exitY=0.5;exitDx=0;exitDy=0;entryX=0;entryY=0.5;entryDx=0;entryDy=0;" edge="1" parent="1" source="_IqxrY9LP4uLv0mn3WM5-14" target="_IqxrY9LP4uLv0mn3WM5-64">
          <mxGeometry relative="1" as="geometry" />
        </mxCell>
        <mxCell id="_IqxrY9LP4uLv0mn3WM5-156" value="true" style="edgeLabel;html=1;align=center;verticalAlign=middle;resizable=0;points=[];" vertex="1" connectable="0" parent="_IqxrY9LP4uLv0mn3WM5-110">
          <mxGeometry x="-0.8208" y="-1" relative="1" as="geometry">
            <mxPoint as="offset" />
          </mxGeometry>
        </mxCell>
        <mxCell id="_IqxrY9LP4uLv0mn3WM5-14" value="remove_mode" style="rhombus;whiteSpace=wrap;html=1;" vertex="1" parent="1">
          <mxGeometry x="45" y="720" width="110" height="80" as="geometry" />
        </mxCell>
        <mxCell id="_IqxrY9LP4uLv0mn3WM5-19" value="" style="edgeStyle=orthogonalEdgeStyle;rounded=0;orthogonalLoop=1;jettySize=auto;html=1;" edge="1" parent="1" source="_IqxrY9LP4uLv0mn3WM5-16" target="_IqxrY9LP4uLv0mn3WM5-18">
          <mxGeometry relative="1" as="geometry" />
        </mxCell>
        <mxCell id="_IqxrY9LP4uLv0mn3WM5-153" value="false" style="edgeLabel;html=1;align=center;verticalAlign=middle;resizable=0;points=[];" vertex="1" connectable="0" parent="_IqxrY9LP4uLv0mn3WM5-19">
          <mxGeometry x="0.0091" relative="1" as="geometry">
            <mxPoint as="offset" />
          </mxGeometry>
        </mxCell>
        <mxCell id="_IqxrY9LP4uLv0mn3WM5-66" style="edgeStyle=orthogonalEdgeStyle;rounded=0;orthogonalLoop=1;jettySize=auto;html=1;exitX=1;exitY=0.5;exitDx=0;exitDy=0;entryX=0;entryY=0.5;entryDx=0;entryDy=0;" edge="1" parent="1" source="_IqxrY9LP4uLv0mn3WM5-16" target="_IqxrY9LP4uLv0mn3WM5-64">
          <mxGeometry relative="1" as="geometry" />
        </mxCell>
        <mxCell id="_IqxrY9LP4uLv0mn3WM5-157" value="true" style="edgeLabel;html=1;align=center;verticalAlign=middle;resizable=0;points=[];" vertex="1" connectable="0" parent="_IqxrY9LP4uLv0mn3WM5-66">
          <mxGeometry x="-0.5251" relative="1" as="geometry">
            <mxPoint as="offset" />
          </mxGeometry>
        </mxCell>
        <mxCell id="_IqxrY9LP4uLv0mn3WM5-16" value="checkout_mode" style="rhombus;whiteSpace=wrap;html=1;" vertex="1" parent="1">
          <mxGeometry x="45" y="840" width="110" height="80" as="geometry" />
        </mxCell>
        <mxCell id="_IqxrY9LP4uLv0mn3WM5-21" value="" style="edgeStyle=orthogonalEdgeStyle;rounded=0;orthogonalLoop=1;jettySize=auto;html=1;exitX=0.507;exitY=1.003;exitDx=0;exitDy=0;exitPerimeter=0;entryX=0.493;entryY=1.027;entryDx=0;entryDy=0;entryPerimeter=0;" edge="1" parent="1" source="_IqxrY9LP4uLv0mn3WM5-18" target="_IqxrY9LP4uLv0mn3WM5-20">
          <mxGeometry relative="1" as="geometry">
            <Array as="points">
              <mxPoint x="101" y="1060" />
              <mxPoint x="294" y="1060" />
            </Array>
          </mxGeometry>
        </mxCell>
        <mxCell id="_IqxrY9LP4uLv0mn3WM5-154" value="false" style="edgeLabel;html=1;align=center;verticalAlign=middle;resizable=0;points=[];" vertex="1" connectable="0" parent="_IqxrY9LP4uLv0mn3WM5-21">
          <mxGeometry y="1" relative="1" as="geometry">
            <mxPoint as="offset" />
          </mxGeometry>
        </mxCell>
        <mxCell id="_IqxrY9LP4uLv0mn3WM5-72" style="edgeStyle=orthogonalEdgeStyle;rounded=0;orthogonalLoop=1;jettySize=auto;html=1;exitX=1;exitY=0.5;exitDx=0;exitDy=0;entryX=0;entryY=0.5;entryDx=0;entryDy=0;" edge="1" parent="1" source="_IqxrY9LP4uLv0mn3WM5-18" target="_IqxrY9LP4uLv0mn3WM5-64">
          <mxGeometry relative="1" as="geometry" />
        </mxCell>
        <mxCell id="_IqxrY9LP4uLv0mn3WM5-158" value="true" style="edgeLabel;html=1;align=center;verticalAlign=middle;resizable=0;points=[];" vertex="1" connectable="0" parent="_IqxrY9LP4uLv0mn3WM5-72">
          <mxGeometry x="-0.812" relative="1" as="geometry">
            <mxPoint as="offset" />
          </mxGeometry>
        </mxCell>
        <mxCell id="_IqxrY9LP4uLv0mn3WM5-18" value="payment_mode" style="rhombus;whiteSpace=wrap;html=1;" vertex="1" parent="1">
          <mxGeometry x="45" y="960" width="110" height="80" as="geometry" />
        </mxCell>
        <mxCell id="_IqxrY9LP4uLv0mn3WM5-23" value="" style="edgeStyle=orthogonalEdgeStyle;rounded=0;orthogonalLoop=1;jettySize=auto;html=1;entryX=-0.008;entryY=0.514;entryDx=0;entryDy=0;entryPerimeter=0;" edge="1" parent="1" source="_IqxrY9LP4uLv0mn3WM5-20" target="_IqxrY9LP4uLv0mn3WM5-22">
          <mxGeometry relative="1" as="geometry" />
        </mxCell>
        <mxCell id="_IqxrY9LP4uLv0mn3WM5-123" value="app_is_running = false" style="edgeLabel;html=1;align=center;verticalAlign=middle;resizable=0;points=[];" vertex="1" connectable="0" parent="_IqxrY9LP4uLv0mn3WM5-23">
          <mxGeometry x="-0.0161" relative="1" as="geometry">
            <mxPoint as="offset" />
          </mxGeometry>
        </mxCell>
        <mxCell id="_IqxrY9LP4uLv0mn3WM5-73" style="edgeStyle=orthogonalEdgeStyle;rounded=0;orthogonalLoop=1;jettySize=auto;html=1;exitX=0.501;exitY=-0.015;exitDx=0;exitDy=0;entryX=0.46;entryY=1.005;entryDx=0;entryDy=0;exitPerimeter=0;entryPerimeter=0;" edge="1" parent="1" source="_IqxrY9LP4uLv0mn3WM5-20" target="_IqxrY9LP4uLv0mn3WM5-64">
          <mxGeometry relative="1" as="geometry" />
        </mxCell>
        <mxCell id="_IqxrY9LP4uLv0mn3WM5-159" value="true" style="edgeLabel;html=1;align=center;verticalAlign=middle;resizable=0;points=[];" vertex="1" connectable="0" parent="_IqxrY9LP4uLv0mn3WM5-73">
          <mxGeometry x="-0.8842" relative="1" as="geometry">
            <mxPoint y="-16" as="offset" />
          </mxGeometry>
        </mxCell>
        <mxCell id="_IqxrY9LP4uLv0mn3WM5-20" value="exit_mode" style="rhombus;whiteSpace=wrap;html=1;" vertex="1" parent="1">
          <mxGeometry x="240" y="960" width="110" height="80" as="geometry" />
        </mxCell>
        <mxCell id="_IqxrY9LP4uLv0mn3WM5-25" value="" style="edgeStyle=orthogonalEdgeStyle;rounded=0;orthogonalLoop=1;jettySize=auto;html=1;exitX=1.005;exitY=0.492;exitDx=0;exitDy=0;exitPerimeter=0;" edge="1" parent="1" source="_IqxrY9LP4uLv0mn3WM5-22" target="_IqxrY9LP4uLv0mn3WM5-24">
          <mxGeometry relative="1" as="geometry" />
        </mxCell>
        <mxCell id="_IqxrY9LP4uLv0mn3WM5-22" value="messages&lt;br&gt;choices" style="whiteSpace=wrap;html=1;" vertex="1" parent="1">
          <mxGeometry x="500" y="970" width="120" height="60" as="geometry" />
        </mxCell>
        <mxCell id="_IqxrY9LP4uLv0mn3WM5-24" value="END" style="ellipse;whiteSpace=wrap;html=1;" vertex="1" parent="1">
          <mxGeometry x="690" y="970" width="80" height="60" as="geometry" />
        </mxCell>
        <mxCell id="_IqxrY9LP4uLv0mn3WM5-106" value="" style="edgeStyle=orthogonalEdgeStyle;rounded=0;orthogonalLoop=1;jettySize=auto;html=1;" edge="1" parent="1" source="_IqxrY9LP4uLv0mn3WM5-28" target="_IqxrY9LP4uLv0mn3WM5-97">
          <mxGeometry relative="1" as="geometry" />
        </mxCell>
        <mxCell id="_IqxrY9LP4uLv0mn3WM5-28" value="OUTPUT&lt;br&gt;show_posters();" style="shape=parallelogram;perimeter=parallelogramPerimeter;whiteSpace=wrap;html=1;fixedSize=1;" vertex="1" parent="1">
          <mxGeometry x="240" y="610" width="120" height="60" as="geometry" />
        </mxCell>
        <mxCell id="_IqxrY9LP4uLv0mn3WM5-107" style="edgeStyle=orthogonalEdgeStyle;rounded=0;orthogonalLoop=1;jettySize=auto;html=1;entryX=1;entryY=0.5;entryDx=0;entryDy=0;exitX=0.5;exitY=0;exitDx=0;exitDy=0;" edge="1" parent="1" source="_IqxrY9LP4uLv0mn3WM5-38" target="_IqxrY9LP4uLv0mn3WM5-97">
          <mxGeometry relative="1" as="geometry">
            <Array as="points">
              <mxPoint x="473" y="520" />
            </Array>
          </mxGeometry>
        </mxCell>
        <mxCell id="_IqxrY9LP4uLv0mn3WM5-38" value="OUTPUT&lt;br&gt;show_seats();" style="shape=parallelogram;perimeter=parallelogramPerimeter;whiteSpace=wrap;html=1;fixedSize=1;" vertex="1" parent="1">
          <mxGeometry x="413" y="610" width="120" height="60" as="geometry" />
        </mxCell>
        <mxCell id="_IqxrY9LP4uLv0mn3WM5-88" value="" style="edgeStyle=orthogonalEdgeStyle;rounded=0;orthogonalLoop=1;jettySize=auto;html=1;" edge="1" parent="1" source="_IqxrY9LP4uLv0mn3WM5-64" target="_IqxrY9LP4uLv0mn3WM5-87">
          <mxGeometry relative="1" as="geometry" />
        </mxCell>
        <mxCell id="_IqxrY9LP4uLv0mn3WM5-64" value="filter_user_choice()" style="whiteSpace=wrap;html=1;" vertex="1" parent="1">
          <mxGeometry x="240" y="850" width="120" height="60" as="geometry" />
        </mxCell>
        <mxCell id="_IqxrY9LP4uLv0mn3WM5-104" style="edgeStyle=orthogonalEdgeStyle;rounded=0;orthogonalLoop=1;jettySize=auto;html=1;exitX=0.5;exitY=0;exitDx=0;exitDy=0;entryX=0.5;entryY=1;entryDx=0;entryDy=0;" edge="1" parent="1" source="_IqxrY9LP4uLv0mn3WM5-87" target="_IqxrY9LP4uLv0mn3WM5-28">
          <mxGeometry relative="1" as="geometry" />
        </mxCell>
        <mxCell id="_IqxrY9LP4uLv0mn3WM5-130" value="true" style="edgeLabel;html=1;align=center;verticalAlign=middle;resizable=0;points=[];" vertex="1" connectable="0" parent="_IqxrY9LP4uLv0mn3WM5-104">
          <mxGeometry x="-0.0399" y="1" relative="1" as="geometry">
            <mxPoint x="1" y="3" as="offset" />
          </mxGeometry>
        </mxCell>
        <mxCell id="_IqxrY9LP4uLv0mn3WM5-105" style="edgeStyle=orthogonalEdgeStyle;rounded=0;orthogonalLoop=1;jettySize=auto;html=1;exitX=1;exitY=0.5;exitDx=0;exitDy=0;entryX=0.5;entryY=1;entryDx=0;entryDy=0;" edge="1" parent="1" source="_IqxrY9LP4uLv0mn3WM5-87" target="_IqxrY9LP4uLv0mn3WM5-38">
          <mxGeometry relative="1" as="geometry" />
        </mxCell>
        <mxCell id="_IqxrY9LP4uLv0mn3WM5-131" value="false" style="edgeLabel;html=1;align=center;verticalAlign=middle;resizable=0;points=[];" vertex="1" connectable="0" parent="_IqxrY9LP4uLv0mn3WM5-105">
          <mxGeometry x="-0.1231" relative="1" as="geometry">
            <mxPoint x="17" y="-80" as="offset" />
          </mxGeometry>
        </mxCell>
        <mxCell id="_IqxrY9LP4uLv0mn3WM5-87" value="poster_mode" style="rhombus;whiteSpace=wrap;html=1;" vertex="1" parent="1">
          <mxGeometry x="260" y="720" width="80" height="80" as="geometry" />
        </mxCell>
        <mxCell id="_IqxrY9LP4uLv0mn3WM5-109" value="" style="edgeStyle=orthogonalEdgeStyle;rounded=0;orthogonalLoop=1;jettySize=auto;html=1;" edge="1" parent="1" source="_IqxrY9LP4uLv0mn3WM5-97" target="_IqxrY9LP4uLv0mn3WM5-108">
          <mxGeometry relative="1" as="geometry" />
        </mxCell>
        <mxCell id="_IqxrY9LP4uLv0mn3WM5-97" value="string message&amp;nbsp;&lt;br&gt;string choices" style="whiteSpace=wrap;html=1;" vertex="1" parent="1">
          <mxGeometry x="240" y="490" width="120" height="60" as="geometry" />
        </mxCell>
        <mxCell id="_IqxrY9LP4uLv0mn3WM5-111" style="edgeStyle=orthogonalEdgeStyle;rounded=0;orthogonalLoop=1;jettySize=auto;html=1;exitX=0;exitY=0.5;exitDx=0;exitDy=0;entryX=1;entryY=0.5;entryDx=0;entryDy=0;" edge="1" parent="1" source="_IqxrY9LP4uLv0mn3WM5-108" target="_IqxrY9LP4uLv0mn3WM5-8">
          <mxGeometry relative="1" as="geometry" />
        </mxCell>
        <mxCell id="_IqxrY9LP4uLv0mn3WM5-108" value="OUTPUT&lt;br&gt;messages&lt;br&gt;choices" style="shape=parallelogram;perimeter=parallelogramPerimeter;whiteSpace=wrap;html=1;fixedSize=1;" vertex="1" parent="1">
          <mxGeometry x="240" y="380" width="120" height="60" as="geometry" />
        </mxCell>
        <mxCell id="_IqxrY9LP4uLv0mn3WM5-161" value="&lt;font style=&quot;font-size: 20px;&quot;&gt;&lt;b&gt;filter_user_choice()&lt;/b&gt;&lt;/font&gt;" style="text;html=1;align=center;verticalAlign=middle;resizable=0;points=[];autosize=1;strokeColor=none;fillColor=none;" vertex="1" parent="1">
          <mxGeometry x="1145" y="13" width="210" height="40" as="geometry" />
        </mxCell>
        <mxCell id="_IqxrY9LP4uLv0mn3WM5-162" value="" style="endArrow=none;dashed=1;html=1;dashPattern=1 3;strokeWidth=2;rounded=0;exitX=1.027;exitY=0.577;exitDx=0;exitDy=0;exitPerimeter=0;entryX=-0.039;entryY=0.504;entryDx=0;entryDy=0;entryPerimeter=0;" edge="1" parent="1" source="_IqxrY9LP4uLv0mn3WM5-64" target="_IqxrY9LP4uLv0mn3WM5-165">
          <mxGeometry width="50" height="50" relative="1" as="geometry">
            <mxPoint x="630" y="690" as="sourcePoint" />
            <mxPoint x="920" y="120" as="targetPoint" />
            <Array as="points">
              <mxPoint x="550" y="880" />
              <mxPoint x="730" y="880" />
              <mxPoint x="730" y="120" />
            </Array>
          </mxGeometry>
        </mxCell>
        <mxCell id="_IqxrY9LP4uLv0mn3WM5-163" value="" style="edgeStyle=orthogonalEdgeStyle;rounded=0;orthogonalLoop=1;jettySize=auto;html=1;" edge="1" parent="1" source="_IqxrY9LP4uLv0mn3WM5-165" target="_IqxrY9LP4uLv0mn3WM5-168">
          <mxGeometry relative="1" as="geometry" />
        </mxCell>
        <mxCell id="_IqxrY9LP4uLv0mn3WM5-164" value="false" style="edgeLabel;html=1;align=center;verticalAlign=middle;resizable=0;points=[];" vertex="1" connectable="0" parent="_IqxrY9LP4uLv0mn3WM5-163">
          <mxGeometry x="-0.0109" y="-1" relative="1" as="geometry">
            <mxPoint x="1" as="offset" />
          </mxGeometry>
        </mxCell>
        <mxCell id="_IqxrY9LP4uLv0mn3WM5-186" value="" style="edgeStyle=orthogonalEdgeStyle;rounded=0;orthogonalLoop=1;jettySize=auto;html=1;" edge="1" parent="1" source="_IqxrY9LP4uLv0mn3WM5-165" target="_IqxrY9LP4uLv0mn3WM5-185">
          <mxGeometry relative="1" as="geometry" />
        </mxCell>
        <mxCell id="_IqxrY9LP4uLv0mn3WM5-165" value="poster_mode" style="rhombus;whiteSpace=wrap;html=1;" vertex="1" parent="1">
          <mxGeometry x="920" y="80" width="110" height="80" as="geometry" />
        </mxCell>
        <mxCell id="_IqxrY9LP4uLv0mn3WM5-166" value="" style="edgeStyle=orthogonalEdgeStyle;rounded=0;orthogonalLoop=1;jettySize=auto;html=1;" edge="1" parent="1" source="_IqxrY9LP4uLv0mn3WM5-168" target="_IqxrY9LP4uLv0mn3WM5-171">
          <mxGeometry relative="1" as="geometry" />
        </mxCell>
        <mxCell id="_IqxrY9LP4uLv0mn3WM5-167" value="false" style="edgeLabel;html=1;align=center;verticalAlign=middle;resizable=0;points=[];" vertex="1" connectable="0" parent="_IqxrY9LP4uLv0mn3WM5-166">
          <mxGeometry x="-0.0273" y="1" relative="1" as="geometry">
            <mxPoint as="offset" />
          </mxGeometry>
        </mxCell>
        <mxCell id="_IqxrY9LP4uLv0mn3WM5-168" value="reservation_mode" style="rhombus;whiteSpace=wrap;html=1;" vertex="1" parent="1">
          <mxGeometry x="920" y="260" width="110" height="80" as="geometry" />
        </mxCell>
        <mxCell id="_IqxrY9LP4uLv0mn3WM5-169" value="" style="edgeStyle=orthogonalEdgeStyle;rounded=0;orthogonalLoop=1;jettySize=auto;html=1;" edge="1" parent="1" source="_IqxrY9LP4uLv0mn3WM5-171" target="_IqxrY9LP4uLv0mn3WM5-174">
          <mxGeometry relative="1" as="geometry" />
        </mxCell>
        <mxCell id="_IqxrY9LP4uLv0mn3WM5-170" value="false" style="edgeLabel;html=1;align=center;verticalAlign=middle;resizable=0;points=[];" vertex="1" connectable="0" parent="_IqxrY9LP4uLv0mn3WM5-169">
          <mxGeometry x="0.0091" y="-1" relative="1" as="geometry">
            <mxPoint as="offset" />
          </mxGeometry>
        </mxCell>
        <mxCell id="_IqxrY9LP4uLv0mn3WM5-210" value="" style="edgeStyle=orthogonalEdgeStyle;rounded=0;orthogonalLoop=1;jettySize=auto;html=1;" edge="1" parent="1" source="_IqxrY9LP4uLv0mn3WM5-171" target="_IqxrY9LP4uLv0mn3WM5-207">
          <mxGeometry relative="1" as="geometry" />
        </mxCell>
        <mxCell id="_IqxrY9LP4uLv0mn3WM5-171" value="remove_mode" style="rhombus;whiteSpace=wrap;html=1;" vertex="1" parent="1">
          <mxGeometry x="920" y="430" width="110" height="80" as="geometry" />
        </mxCell>
        <mxCell id="_IqxrY9LP4uLv0mn3WM5-172" value="" style="edgeStyle=orthogonalEdgeStyle;rounded=0;orthogonalLoop=1;jettySize=auto;html=1;entryX=-0.015;entryY=0.557;entryDx=0;entryDy=0;entryPerimeter=0;" edge="1" parent="1" source="_IqxrY9LP4uLv0mn3WM5-174" target="_IqxrY9LP4uLv0mn3WM5-175">
          <mxGeometry relative="1" as="geometry" />
        </mxCell>
        <mxCell id="_IqxrY9LP4uLv0mn3WM5-173" value="false" style="edgeLabel;html=1;align=center;verticalAlign=middle;resizable=0;points=[];" vertex="1" connectable="0" parent="_IqxrY9LP4uLv0mn3WM5-172">
          <mxGeometry x="0.0091" relative="1" as="geometry">
            <mxPoint as="offset" />
          </mxGeometry>
        </mxCell>
        <mxCell id="_IqxrY9LP4uLv0mn3WM5-224" value="" style="edgeStyle=orthogonalEdgeStyle;rounded=0;orthogonalLoop=1;jettySize=auto;html=1;" edge="1" parent="1" source="_IqxrY9LP4uLv0mn3WM5-174" target="_IqxrY9LP4uLv0mn3WM5-222">
          <mxGeometry relative="1" as="geometry" />
        </mxCell>
        <mxCell id="_IqxrY9LP4uLv0mn3WM5-174" value="checkout_mode" style="rhombus;whiteSpace=wrap;html=1;" vertex="1" parent="1">
          <mxGeometry x="920" y="620" width="110" height="80" as="geometry" />
        </mxCell>
        <mxCell id="_IqxrY9LP4uLv0mn3WM5-177" value="" style="edgeStyle=orthogonalEdgeStyle;rounded=0;orthogonalLoop=1;jettySize=auto;html=1;" edge="1" parent="1" source="_IqxrY9LP4uLv0mn3WM5-175" target="_IqxrY9LP4uLv0mn3WM5-176">
          <mxGeometry relative="1" as="geometry" />
        </mxCell>
        <mxCell id="_IqxrY9LP4uLv0mn3WM5-178" value="false" style="edgeLabel;html=1;align=center;verticalAlign=middle;resizable=0;points=[];" vertex="1" connectable="0" parent="_IqxrY9LP4uLv0mn3WM5-177">
          <mxGeometry x="-0.1615" y="-3" relative="1" as="geometry">
            <mxPoint y="6" as="offset" />
          </mxGeometry>
        </mxCell>
        <mxCell id="_IqxrY9LP4uLv0mn3WM5-231" value="" style="edgeStyle=orthogonalEdgeStyle;rounded=0;orthogonalLoop=1;jettySize=auto;html=1;" edge="1" parent="1" source="_IqxrY9LP4uLv0mn3WM5-175" target="_IqxrY9LP4uLv0mn3WM5-230">
          <mxGeometry relative="1" as="geometry" />
        </mxCell>
        <mxCell id="_IqxrY9LP4uLv0mn3WM5-175" value="payment_mode" style="rhombus;whiteSpace=wrap;html=1;" vertex="1" parent="1">
          <mxGeometry x="920" y="800" width="110" height="80" as="geometry" />
        </mxCell>
        <mxCell id="_IqxrY9LP4uLv0mn3WM5-176" value="exit_mode" style="rhombus;whiteSpace=wrap;html=1;" vertex="1" parent="1">
          <mxGeometry x="920" y="960" width="110" height="80" as="geometry" />
        </mxCell>
        <mxCell id="_IqxrY9LP4uLv0mn3WM5-182" value="" style="edgeStyle=orthogonalEdgeStyle;rounded=0;orthogonalLoop=1;jettySize=auto;html=1;" edge="1" parent="1" source="_IqxrY9LP4uLv0mn3WM5-179" target="_IqxrY9LP4uLv0mn3WM5-181">
          <mxGeometry relative="1" as="geometry" />
        </mxCell>
        <mxCell id="_IqxrY9LP4uLv0mn3WM5-189" value="" style="edgeStyle=orthogonalEdgeStyle;rounded=0;orthogonalLoop=1;jettySize=auto;html=1;" edge="1" parent="1" source="_IqxrY9LP4uLv0mn3WM5-179" target="_IqxrY9LP4uLv0mn3WM5-188">
          <mxGeometry relative="1" as="geometry" />
        </mxCell>
        <mxCell id="_IqxrY9LP4uLv0mn3WM5-179" value="mov_1" style="rhombus;whiteSpace=wrap;html=1;" vertex="1" parent="1">
          <mxGeometry x="1215" y="80" width="110" height="80" as="geometry" />
        </mxCell>
        <mxCell id="_IqxrY9LP4uLv0mn3WM5-184" value="" style="edgeStyle=orthogonalEdgeStyle;rounded=0;orthogonalLoop=1;jettySize=auto;html=1;" edge="1" parent="1" source="_IqxrY9LP4uLv0mn3WM5-181" target="_IqxrY9LP4uLv0mn3WM5-183">
          <mxGeometry relative="1" as="geometry" />
        </mxCell>
        <mxCell id="_IqxrY9LP4uLv0mn3WM5-191" value="" style="edgeStyle=orthogonalEdgeStyle;rounded=0;orthogonalLoop=1;jettySize=auto;html=1;" edge="1" parent="1" source="_IqxrY9LP4uLv0mn3WM5-181" target="_IqxrY9LP4uLv0mn3WM5-190">
          <mxGeometry relative="1" as="geometry" />
        </mxCell>
        <mxCell id="_IqxrY9LP4uLv0mn3WM5-181" value="mov_2" style="rhombus;whiteSpace=wrap;html=1;" vertex="1" parent="1">
          <mxGeometry x="1375" y="80" width="110" height="80" as="geometry" />
        </mxCell>
        <mxCell id="_IqxrY9LP4uLv0mn3WM5-193" value="" style="edgeStyle=orthogonalEdgeStyle;rounded=0;orthogonalLoop=1;jettySize=auto;html=1;" edge="1" parent="1" source="_IqxrY9LP4uLv0mn3WM5-183" target="_IqxrY9LP4uLv0mn3WM5-192">
          <mxGeometry relative="1" as="geometry" />
        </mxCell>
        <mxCell id="_IqxrY9LP4uLv0mn3WM5-183" value="mov3" style="rhombus;whiteSpace=wrap;html=1;" vertex="1" parent="1">
          <mxGeometry x="1535" y="80" width="110" height="80" as="geometry" />
        </mxCell>
        <mxCell id="_IqxrY9LP4uLv0mn3WM5-187" value="" style="edgeStyle=orthogonalEdgeStyle;rounded=0;orthogonalLoop=1;jettySize=auto;html=1;" edge="1" parent="1" source="_IqxrY9LP4uLv0mn3WM5-185" target="_IqxrY9LP4uLv0mn3WM5-179">
          <mxGeometry relative="1" as="geometry" />
        </mxCell>
        <mxCell id="_IqxrY9LP4uLv0mn3WM5-185" value="INPUT&amp;nbsp;&lt;br&gt;user_choice" style="shape=parallelogram;perimeter=parallelogramPerimeter;whiteSpace=wrap;html=1;fixedSize=1;" vertex="1" parent="1">
          <mxGeometry x="1060" y="90" width="120" height="60" as="geometry" />
        </mxCell>
        <mxCell id="_IqxrY9LP4uLv0mn3WM5-211" value="" style="edgeStyle=orthogonalEdgeStyle;rounded=0;orthogonalLoop=1;jettySize=auto;html=1;entryX=0.52;entryY=0.1;entryDx=0;entryDy=0;entryPerimeter=0;" edge="1" parent="1" source="_IqxrY9LP4uLv0mn3WM5-188" target="_IqxrY9LP4uLv0mn3WM5-202">
          <mxGeometry relative="1" as="geometry" />
        </mxCell>
        <mxCell id="_IqxrY9LP4uLv0mn3WM5-188" value="chosen_movie =&lt;br&gt;mov_1" style="whiteSpace=wrap;html=1;" vertex="1" parent="1">
          <mxGeometry x="1210" y="180" width="120" height="60" as="geometry" />
        </mxCell>
        <mxCell id="_IqxrY9LP4uLv0mn3WM5-190" value="chosen_movie =&lt;br style=&quot;border-color: var(--border-color);&quot;&gt;mov_2" style="whiteSpace=wrap;html=1;" vertex="1" parent="1">
          <mxGeometry x="1370" y="180" width="120" height="60" as="geometry" />
        </mxCell>
        <mxCell id="_IqxrY9LP4uLv0mn3WM5-192" value="chosen_movie =&lt;br style=&quot;border-color: var(--border-color);&quot;&gt;mov_3" style="whiteSpace=wrap;html=1;" vertex="1" parent="1">
          <mxGeometry x="1530" y="180" width="120" height="60" as="geometry" />
        </mxCell>
        <mxCell id="_IqxrY9LP4uLv0mn3WM5-194" value="" style="edgeStyle=orthogonalEdgeStyle;rounded=0;orthogonalLoop=1;jettySize=auto;html=1;" edge="1" parent="1" target="_IqxrY9LP4uLv0mn3WM5-196">
          <mxGeometry relative="1" as="geometry">
            <mxPoint x="1030" y="300" as="sourcePoint" />
          </mxGeometry>
        </mxCell>
        <mxCell id="_IqxrY9LP4uLv0mn3WM5-195" value="" style="edgeStyle=orthogonalEdgeStyle;rounded=0;orthogonalLoop=1;jettySize=auto;html=1;" edge="1" parent="1" source="_IqxrY9LP4uLv0mn3WM5-196">
          <mxGeometry relative="1" as="geometry">
            <mxPoint x="1210" y="350" as="targetPoint" />
          </mxGeometry>
        </mxCell>
        <mxCell id="_IqxrY9LP4uLv0mn3WM5-196" value="INPUT&amp;nbsp;&lt;br&gt;user_choice" style="shape=parallelogram;perimeter=parallelogramPerimeter;whiteSpace=wrap;html=1;fixedSize=1;" vertex="1" parent="1">
          <mxGeometry x="1060" y="320" width="120" height="60" as="geometry" />
        </mxCell>
        <mxCell id="_IqxrY9LP4uLv0mn3WM5-200" value="user_input =&amp;nbsp;&lt;br&gt;chosen_seat" style="rounded=0;whiteSpace=wrap;html=1;" vertex="1" parent="1">
          <mxGeometry x="1210" y="320" width="120" height="60" as="geometry" />
        </mxCell>
        <mxCell id="_IqxrY9LP4uLv0mn3WM5-202" value="" style="ellipse;whiteSpace=wrap;html=1;aspect=fixed;fillColor=#000000;" vertex="1" parent="1">
          <mxGeometry x="1270" y="270" width="10" height="10" as="geometry" />
        </mxCell>
        <mxCell id="_IqxrY9LP4uLv0mn3WM5-203" value="" style="ellipse;whiteSpace=wrap;html=1;aspect=fixed;fillColor=#000000;" vertex="1" parent="1">
          <mxGeometry x="1430" y="270" width="10" height="10" as="geometry" />
        </mxCell>
        <mxCell id="_IqxrY9LP4uLv0mn3WM5-204" value="" style="ellipse;whiteSpace=wrap;html=1;aspect=fixed;fillColor=#000000;" vertex="1" parent="1">
          <mxGeometry x="1590" y="270" width="10" height="10" as="geometry" />
        </mxCell>
        <mxCell id="_IqxrY9LP4uLv0mn3WM5-205" value="" style="ellipse;whiteSpace=wrap;html=1;aspect=fixed;fillColor=#000000;" vertex="1" parent="1">
          <mxGeometry x="1360" y="340" width="10" height="10" as="geometry" />
        </mxCell>
        <mxCell id="_IqxrY9LP4uLv0mn3WM5-206" value="" style="edgeStyle=orthogonalEdgeStyle;rounded=0;orthogonalLoop=1;jettySize=auto;html=1;" edge="1" parent="1" source="_IqxrY9LP4uLv0mn3WM5-207">
          <mxGeometry relative="1" as="geometry">
            <mxPoint x="1210" y="470" as="targetPoint" />
          </mxGeometry>
        </mxCell>
        <mxCell id="_IqxrY9LP4uLv0mn3WM5-207" value="INPUT&amp;nbsp;&lt;br&gt;user_choice" style="shape=parallelogram;perimeter=parallelogramPerimeter;whiteSpace=wrap;html=1;fixedSize=1;" vertex="1" parent="1">
          <mxGeometry x="1060" y="440" width="120" height="60" as="geometry" />
        </mxCell>
        <mxCell id="_IqxrY9LP4uLv0mn3WM5-208" value="user_input =&amp;nbsp;&lt;br&gt;chosen_seat" style="rounded=0;whiteSpace=wrap;html=1;" vertex="1" parent="1">
          <mxGeometry x="1210" y="440" width="120" height="60" as="geometry" />
        </mxCell>
        <mxCell id="_IqxrY9LP4uLv0mn3WM5-209" value="" style="ellipse;whiteSpace=wrap;html=1;aspect=fixed;fillColor=#000000;" vertex="1" parent="1">
          <mxGeometry x="1360" y="460" width="10" height="10" as="geometry" />
        </mxCell>
        <mxCell id="_IqxrY9LP4uLv0mn3WM5-217" style="edgeStyle=orthogonalEdgeStyle;rounded=0;orthogonalLoop=1;jettySize=auto;html=1;entryX=0.2;entryY=0.1;entryDx=0;entryDy=0;entryPerimeter=0;" edge="1" parent="1" source="_IqxrY9LP4uLv0mn3WM5-190" target="_IqxrY9LP4uLv0mn3WM5-203">
          <mxGeometry relative="1" as="geometry" />
        </mxCell>
        <mxCell id="_IqxrY9LP4uLv0mn3WM5-218" style="edgeStyle=orthogonalEdgeStyle;rounded=0;orthogonalLoop=1;jettySize=auto;html=1;entryX=0.12;entryY=0.5;entryDx=0;entryDy=0;entryPerimeter=0;" edge="1" parent="1" source="_IqxrY9LP4uLv0mn3WM5-192" target="_IqxrY9LP4uLv0mn3WM5-204">
          <mxGeometry relative="1" as="geometry" />
        </mxCell>
        <mxCell id="_IqxrY9LP4uLv0mn3WM5-219" style="edgeStyle=orthogonalEdgeStyle;rounded=0;orthogonalLoop=1;jettySize=auto;html=1;entryX=0.16;entryY=0.7;entryDx=0;entryDy=0;entryPerimeter=0;" edge="1" parent="1" source="_IqxrY9LP4uLv0mn3WM5-200" target="_IqxrY9LP4uLv0mn3WM5-205">
          <mxGeometry relative="1" as="geometry" />
        </mxCell>
        <mxCell id="_IqxrY9LP4uLv0mn3WM5-220" style="edgeStyle=orthogonalEdgeStyle;rounded=0;orthogonalLoop=1;jettySize=auto;html=1;entryX=0;entryY=0.38;entryDx=0;entryDy=0;entryPerimeter=0;" edge="1" parent="1" source="_IqxrY9LP4uLv0mn3WM5-208" target="_IqxrY9LP4uLv0mn3WM5-209">
          <mxGeometry relative="1" as="geometry" />
        </mxCell>
        <mxCell id="_IqxrY9LP4uLv0mn3WM5-226" value="" style="edgeStyle=orthogonalEdgeStyle;rounded=0;orthogonalLoop=1;jettySize=auto;html=1;" edge="1" parent="1" source="_IqxrY9LP4uLv0mn3WM5-222" target="_IqxrY9LP4uLv0mn3WM5-225">
          <mxGeometry relative="1" as="geometry" />
        </mxCell>
        <mxCell id="_IqxrY9LP4uLv0mn3WM5-222" value="INPUT&amp;nbsp;&lt;br&gt;user_choice" style="shape=parallelogram;perimeter=parallelogramPerimeter;whiteSpace=wrap;html=1;fixedSize=1;" vertex="1" parent="1">
          <mxGeometry x="1060" y="630" width="120" height="60" as="geometry" />
        </mxCell>
        <mxCell id="_IqxrY9LP4uLv0mn3WM5-225" value="user_choice" style="rhombus;whiteSpace=wrap;html=1;" vertex="1" parent="1">
          <mxGeometry x="1240" y="620" width="80" height="80" as="geometry" />
        </mxCell>
        <mxCell id="_IqxrY9LP4uLv0mn3WM5-227" style="edgeStyle=orthogonalEdgeStyle;rounded=0;orthogonalLoop=1;jettySize=auto;html=1;entryX=0.48;entryY=0.007;entryDx=0;entryDy=0;entryPerimeter=0;" edge="1" parent="1" source="_IqxrY9LP4uLv0mn3WM5-225" target="_IqxrY9LP4uLv0mn3WM5-175">
          <mxGeometry relative="1" as="geometry">
            <Array as="points">
              <mxPoint x="1280" y="750" />
              <mxPoint x="1010" y="750" />
              <mxPoint x="1010" y="801" />
            </Array>
          </mxGeometry>
        </mxCell>
        <mxCell id="_IqxrY9LP4uLv0mn3WM5-228" value="yes" style="edgeLabel;html=1;align=center;verticalAlign=middle;resizable=0;points=[];" vertex="1" connectable="0" parent="_IqxrY9LP4uLv0mn3WM5-227">
          <mxGeometry x="-0.0956" y="1" relative="1" as="geometry">
            <mxPoint as="offset" />
          </mxGeometry>
        </mxCell>
        <mxCell id="_IqxrY9LP4uLv0mn3WM5-229" style="edgeStyle=orthogonalEdgeStyle;rounded=0;orthogonalLoop=1;jettySize=auto;html=1;entryX=0.007;entryY=0.518;entryDx=0;entryDy=0;entryPerimeter=0;" edge="1" parent="1" source="_IqxrY9LP4uLv0mn3WM5-225" target="_IqxrY9LP4uLv0mn3WM5-168">
          <mxGeometry relative="1" as="geometry">
            <Array as="points">
              <mxPoint x="1280" y="590" />
              <mxPoint x="900" y="590" />
              <mxPoint x="900" y="301" />
            </Array>
          </mxGeometry>
        </mxCell>
        <mxCell id="_IqxrY9LP4uLv0mn3WM5-234" style="edgeStyle=orthogonalEdgeStyle;rounded=0;orthogonalLoop=1;jettySize=auto;html=1;" edge="1" parent="1" source="_IqxrY9LP4uLv0mn3WM5-230">
          <mxGeometry relative="1" as="geometry">
            <mxPoint x="900" y="591.6000366210938" as="targetPoint" />
            <Array as="points">
              <mxPoint x="1165" y="900" />
              <mxPoint x="901" y="900" />
            </Array>
          </mxGeometry>
        </mxCell>
        <mxCell id="_IqxrY9LP4uLv0mn3WM5-237" value="false" style="edgeLabel;html=1;align=center;verticalAlign=middle;resizable=0;points=[];" vertex="1" connectable="0" parent="_IqxrY9LP4uLv0mn3WM5-234">
          <mxGeometry x="-0.5327" y="-1" relative="1" as="geometry">
            <mxPoint as="offset" />
          </mxGeometry>
        </mxCell>
        <mxCell id="_IqxrY9LP4uLv0mn3WM5-230" value="user_choice &amp;gt;&amp;nbsp;&lt;br&gt;amount" style="rhombus;whiteSpace=wrap;html=1;" vertex="1" parent="1">
          <mxGeometry x="1110" y="800" width="110" height="80" as="geometry" />
        </mxCell>
        <mxCell id="_IqxrY9LP4uLv0mn3WM5-235" style="edgeStyle=orthogonalEdgeStyle;rounded=0;orthogonalLoop=1;jettySize=auto;html=1;entryX=1.018;entryY=0.498;entryDx=0;entryDy=0;entryPerimeter=0;" edge="1" parent="1" source="_IqxrY9LP4uLv0mn3WM5-230" target="_IqxrY9LP4uLv0mn3WM5-176">
          <mxGeometry relative="1" as="geometry">
            <Array as="points">
              <mxPoint x="1280" y="840" />
              <mxPoint x="1280" y="1000" />
            </Array>
          </mxGeometry>
        </mxCell>
        <mxCell id="_IqxrY9LP4uLv0mn3WM5-236" value="true" style="edgeLabel;html=1;align=center;verticalAlign=middle;resizable=0;points=[];" vertex="1" connectable="0" parent="_IqxrY9LP4uLv0mn3WM5-235">
          <mxGeometry x="-0.4066" relative="1" as="geometry">
            <mxPoint as="offset" />
          </mxGeometry>
        </mxCell>
        <mxCell id="_IqxrY9LP4uLv0mn3WM5-238" value="" style="ellipse;whiteSpace=wrap;html=1;aspect=fixed;fillColor=#000000;" vertex="1" parent="1">
          <mxGeometry x="970" y="1060" width="10" height="10" as="geometry" />
        </mxCell>
        <mxCell id="_IqxrY9LP4uLv0mn3WM5-239" style="edgeStyle=orthogonalEdgeStyle;rounded=0;orthogonalLoop=1;jettySize=auto;html=1;entryX=0.28;entryY=0.46;entryDx=0;entryDy=0;entryPerimeter=0;" edge="1" parent="1" source="_IqxrY9LP4uLv0mn3WM5-176" target="_IqxrY9LP4uLv0mn3WM5-238">
          <mxGeometry relative="1" as="geometry" />
        </mxCell>
        <mxCell id="_IqxrY9LP4uLv0mn3WM5-241" value="" style="edgeStyle=orthogonalEdgeStyle;rounded=0;orthogonalLoop=1;jettySize=auto;html=1;" edge="1" parent="1" source="_IqxrY9LP4uLv0mn3WM5-240" target="_IqxrY9LP4uLv0mn3WM5-87">
          <mxGeometry relative="1" as="geometry" />
        </mxCell>
        <mxCell id="_IqxrY9LP4uLv0mn3WM5-240" value="" style="ellipse;whiteSpace=wrap;html=1;aspect=fixed;fillColor=#000000;" vertex="1" parent="1">
          <mxGeometry x="400" y="820" width="10" height="10" as="geometry" />
        </mxCell>
      </root>
    </mxGraphModel>
  </diagram>
</mxfile>
